<?xml version="1.0" standalone="no"?>
<!DOCTYPE svg PUBLIC "-//W3C//DTD SVG 20010904//EN"
 "http://www.w3.org/TR/2001/REC-SVG-20010904/DTD/svg10.dtd">
<svg version="1.0" xmlns="http://www.w3.org/2000/svg"
 width="700.000000pt" height="700.000000pt" viewBox="0 0 700.000000 700.000000"
 preserveAspectRatio="xMidYMid meet">
<metadata>
Created by potrace 1.14, written by Peter Selinger 2001-2017
</metadata>
<g transform="translate(0.000000,700.000000) scale(0.100000,-0.100000)"
fill="#000000" stroke="none">
<path d="M0 3500 l0 -3500 3500 0 3500 0 0 3500 0 3500 -3500 0 -3500 0 0
-3500z m1670 664 c223 -366 407 -667 411 -669 3 -2 184 297 403 666 l398 669
268 0 267 0 6 -157 c4 -87 7 -611 7 -1165 l0 -1008 -300 0 c-165 0 -301 1
-302 3 -1 1 -5 277 -8 614 l-5 612 -296 -497 -297 -497 -148 -3 -149 -2 -295
482 -295 483 -3 -597 -2 -598 -305 0 -305 0 0 1165 0 1165 273 0 272 0 405
-666z m3630 642 c206 -40 392 -113 531 -206 226 -154 383 -394 445 -680 26
-119 26 -391 0 -510 -103 -478 -437 -781 -976 -886 -73 -15 -181 -18 -742 -21
l-658 -4 0 1166 0 1166 658 -4 c561 -3 669 -6 742 -21z"/>
<path d="M4560 3665 l0 -636 288 3 c315 5 346 9 472 71 87 43 197 151 239 236
96 191 96 461 0 652 -42 85 -152 193 -239 236 -126 62 -157 66 -472 71 l-288
3 0 -636z"/>
</g>
</svg>
