<?xml version="1.0" encoding="UTF-8"?>
<svg id="Layer_2" data-name="Layer 2" xmlns="http://www.w3.org/2000/svg" viewBox="0 0 109.64 21.02">
  <defs>
    <style>
      .cls-1 {
        fill: #fff;
      }
    </style>
  </defs>
  <g id="Monarch_Digital" data-name="Monarch Digital">
    <g>
      <g>
        <path class="cls-1" d="m30.91,7.14h.9v6.75h-.97v-5.25l-2.07,2.61h-.18l-2.1-2.61v5.25h-.97v-6.75h.91l2.24,2.77,2.23-2.77Z"/>
        <path class="cls-1" d="m36.58,7.04c1.04,0,1.91.33,2.6.99.69.66,1.04,1.49,1.04,2.48s-.35,1.82-1.05,2.47c-.7.65-1.58.98-2.65.98s-1.86-.33-2.54-.98c-.68-.65-1.02-1.47-1.02-2.45s.34-1.84,1.02-2.5c.68-.66,1.54-.99,2.59-.99Zm.04.92c-.77,0-1.41.24-1.9.72-.5.48-.75,1.1-.75,1.85s.25,1.33.75,1.82c.5.48,1.12.72,1.87.72s1.38-.25,1.88-.74.75-1.11.75-1.84-.25-1.32-.75-1.8c-.5-.49-1.12-.73-1.86-.73Z"/>
        <path class="cls-1" d="m46.77,7.14h.92v6.75h-.83l-4.51-5.2v5.2h-.91v-6.75h.78l4.55,5.24v-5.24Z"/>
        <path class="cls-1" d="m51.29,7.1h.68l3.03,6.79h-.99l-.9-2h-2.88l-.84,2h-.99l2.9-6.79Zm1.42,3.93l-1.09-2.44-1.01,2.44h2.1Z"/>
        <path class="cls-1" d="m55.76,13.88v-6.75h1.69c.68,0,1.22.17,1.63.51.4.34.6.8.6,1.37,0,.39-.1.73-.29,1.02-.2.29-.48.5-.85.64.22.14.43.34.63.58.21.24.5.67.87,1.28.23.38.42.67.56.86l.36.48h-1.15l-.29-.44s-.03-.04-.06-.08l-.19-.27-.3-.49-.32-.53c-.2-.28-.38-.5-.55-.66s-.32-.28-.45-.35-.36-.11-.67-.11h-.25v2.94h-.97Zm1.26-5.93h-.29v2.13h.37c.49,0,.83-.04,1.01-.13s.32-.21.42-.38c.1-.17.15-.36.15-.58s-.06-.41-.17-.58c-.11-.17-.27-.29-.48-.36s-.54-.11-1.02-.11Z"/>
        <path class="cls-1" d="m67.53,12.32v1.06c-.71.39-1.53.58-2.45.58-.75,0-1.39-.15-1.92-.45-.52-.3-.94-.72-1.25-1.25-.31-.53-.46-1.11-.46-1.72,0-.98.35-1.81,1.05-2.48.7-.67,1.56-1,2.59-1,.71,0,1.5.18,2.36.56v1.04c-.79-.45-1.56-.68-2.31-.68s-1.41.24-1.92.73c-.51.49-.77,1.1-.77,1.83s.25,1.35.75,1.83c.5.48,1.14.72,1.93.72s1.62-.25,2.4-.75Z"/>
        <path class="cls-1" d="m73.47,7.14h.97v6.75h-.97v-2.94h-3.79v2.94h-.97v-6.75h.97v2.92h3.79v-2.92Z"/>
      </g>
      <g>
        <path class="cls-1" d="m75.94,7.14h2.36c1.19,0,2.11.31,2.74.94.63.63.94,1.44.94,2.43s-.31,1.78-.93,2.42-1.51.95-2.65.95h-2.45v-6.75Zm.52.43v5.88h1.9c.87,0,1.6-.27,2.18-.8.58-.54.87-1.25.87-2.13s-.29-1.57-.86-2.12-1.32-.82-2.23-.82h-1.87Z"/>
        <path class="cls-1" d="m83.78,7.14v6.75h-.52v-6.75h.52Z"/>
        <path class="cls-1" d="m90.97,7.63v.59c-.8-.45-1.6-.68-2.39-.68-.85,0-1.56.28-2.13.85-.57.57-.85,1.28-.85,2.13s.28,1.56.84,2.13c.56.57,1.32.85,2.28.85.7,0,1.31-.14,1.85-.42v-1.82h-1.43v-.43h1.95v2.58c-.8.38-1.59.57-2.4.57-1.05,0-1.92-.33-2.62-1-.7-.66-1.05-1.49-1.05-2.48s.34-1.81,1.03-2.46c.69-.65,1.55-.98,2.59-.98.71,0,1.48.19,2.31.57Z"/>
        <path class="cls-1" d="m92.95,7.14v6.75h-.52v-6.75h.52Z"/>
        <path class="cls-1" d="m99.34,7.14v.43h-2.53v6.31h-.53v-6.31h-2.53v-.43h5.59Z"/>
        <path class="cls-1" d="m101.84,7.09l3.12,6.8h-.55l-1.07-2.33h-3.3l-1.06,2.33h-.55l3.12-6.8h.29Zm1.31,4.03l-1.45-3.18-1.45,3.18h2.9Z"/>
        <path class="cls-1" d="m106.3,7.14v6.31h3.34v.44h-3.86v-6.75h.52Z"/>
      </g>
    </g>
  </g>
  <g id="Layer_5" data-name="Layer 5">
    <g>
      <path class="cls-1" d="m14.38,8.27h-1.22v3.76h1.22c1.16,0,1.95-.69,1.95-1.88s-.78-1.88-1.95-1.88Z"/>
      <path class="cls-1" d="m0,0v21.02h21.02V0H0Zm8.64,13.57l-.02-3.63-1.76,2.96h-.86l-1.75-2.86v3.53h-1.79v-6.85h1.59l2.41,3.95,2.35-3.95h1.59l.02,6.85h-1.78Zm5.82,0h-3.24v-6.85h3.24c2.27,0,3.83,1.32,3.83,3.42s-1.56,3.42-3.83,3.42Z"/>
    </g>
  </g>
</svg>
